<svg
	xmlns="http://www.w3.org/2000/svg" viewBox="0 0 128 128">
<style type="text/css">
	.svg-examples--1{fill:none;stroke:currentColor;stroke-width:4;stroke-miterlimit:10;}
	.svg-examples--2{fill:none;stroke:currentColor;stroke-width:4;stroke-miterlimit:10;stroke-dasharray:4,4;}
	.svg-examples--3{fill:none;stroke:currentColor;stroke-width:2;stroke-miterlimit:10;}
</style>
<g>
	<path class="svg-examples--1" d="M42,28H32c-2.21,0-4,1.79-4,4v14v14c0,2.21,1.79,4,4,4h10c2.21,0,4-1.79,4-4V46V32C46,29.79,44.21,28,42,28z"
		/>
	<path class="svg-examples--2" d="M78,73H41c-2.21,0-4,1.79-4,4v14v5c0,2.21,1.79,4,4,4h37c2.21,0,4-1.79,4-4v-5V77C82,74.79,80.21,73,78,73z"/>
	<path class="svg-examples--3" d="M96,28H68c-2.21,0-4,1.79-4,4v14v14c0,2.21,1.79,4,4,4h28c2.21,0,4-1.79,4-4V46V32C100,29.79,98.21,28,96,28z"
		/>
</g>
</svg>
