<svg
	xmlns="http://www.w3.org/2000/svg" viewBox="0 0 128 128">
<style type="text/css">
	.svg-docs-1{fill:none;stroke:currentColor;stroke-width:4;stroke-miterlimit:10;}
	.svg-docs-2{fill:none;stroke:currentColor;stroke-width:2;stroke-miterlimit:10;}
</style>
		<g>
			<path class="svg-docs-1" d="M96,28l-32,7.38L32,28c-2.21,0-4,1.79-4,4v50v14c0,2.21,1.79,4,4,4l32-10.62L96,100c2.21,0,4-1.79,4-4V82V32
				C100,29.79,98.21,28,96,28z"/>
		</g>
		<line class="svg-docs-2" x1="64" y1="35.38" x2="64" y2="89.38"/>
		<g>
			<path class="svg-docs-2" d="M19,36v43.75V92c0,1.93,2.24,3.5,5,3.5l4-0.93V33.15l-4-0.65C21.24,32.5,19,34.07,19,36z"/>
			<path class="svg-docs-2" d="M104,32.5l-4,0.65v61.42l4,0.93c2.76,0,5-1.57,5-3.5V79.75V36C109,34.07,106.76,32.5,104,32.5z"/>
		</g>
		<line class="svg-docs-2" x1="64" y1="38.95" x2="64" y2="86.2"/>

</svg>
