<svg
	xmlns="http://www.w3.org/2000/svg" viewBox="0 0 128 128">
	<defs>
		<style>.svg-settings{fill:none;stroke:currentColor;stroke-miterlimit:10;}.svg-settings-a{stroke-width:4px;}.svg-settings-b{stroke-width:2px;}</style>
	</defs>
	<path class="svg-settings svg-settings-a" d="M96,28H32a4,4,0,0,0-4,4V96a4,4,0,0,0,4,4H96a4,4,0,0,0,4-4V32A4,4,0,0,0,96,28Z"/>
	<path class="svg-settings svg-settings-b" d="M91,67.38V60.62l-7.44-1.85a19.94,19.94,0,0,0-2-4.9l4-6.58-4.77-4.77-6.58,3.95a19.94,19.94,0,0,0-4.9-2L67.38,37H60.62l-1.85,7.44a19.94,19.94,0,0,0-4.9,2l-6.58-3.95-4.77,4.77,3.95,6.58a19.94,19.94,0,0,0-2,4.9L37,60.62v6.76l7.44,1.85a19.94,19.94,0,0,0,2,4.9l-3.95,6.58,4.77,4.77,6.58-4a19.94,19.94,0,0,0,4.9,2L60.62,91h6.76l1.85-7.44a19.94,19.94,0,0,0,4.9-2l6.58,4,4.77-4.77-4-6.58a19.94,19.94,0,0,0,2-4.9Z"/>
</svg>