<svg
    xmlns="http://www.w3.org/2000/svg" viewBox="0 0 231.32 39.81">
    <defs>
        <style>.foreground{fill:currentColor;} .sec{ fill: var(--ol-secondary) !important} .pri{ fill: var(--ol-primary) !important}</style>
    </defs>
    <path class="sec" d="M37.65,11.05l-1,.15a2.11,2.11,0,0,1-2.41-1.76l-.15-1A2.13,2.13,0,0,0,31.7,6.69L10.11,10a2.1,2.1,0,0,0-1.76,2.4l.15,1a2.1,2.1,0,0,1-1.76,2.4l-1,.15a2.11,2.11,0,0,1-2.41-1.76l-.28-1.84A6.45,6.45,0,0,1,8.46,5l23.31-3.6A6.46,6.46,0,0,1,39.13,6.8l.28,1.84A2.11,2.11,0,0,1,37.65,11.05Z" transform="translate(-2.99 -1.33)"/>
    <path class="sec" d="M37.33,37.47,14,41.07a6.45,6.45,0,0,1-7.36-5.39l-.29-1.85a2.1,2.1,0,0,1,1.76-2.4l1-.15A2.1,2.1,0,0,1,11.53,33l.15,1a2.13,2.13,0,0,0,2.41,1.77l21.59-3.34a2.1,2.1,0,0,0,1.76-2.4l-.15-1a2.1,2.1,0,0,1,1.76-2.4l1-.16a2.12,2.12,0,0,1,2.4,1.77l.29,1.84A6.45,6.45,0,0,1,37.33,37.47Z" transform="translate(-2.99 -1.33)"/>
    <rect class="pri" x="4.84" y="19.72" width="5.21" height="7.82" rx="2.11" transform="translate(-6.51 0.08) rotate(-8.78)"/>
    <rect class="pri" x="35.74" y="14.94" width="5.21" height="7.82" rx="2.11" transform="translate(-5.42 4.74) rotate(-8.78)"/>
    <path class="foreground" d="M67.23,11.51a2.83,2.83,0,0,1,.75-.94,1.69,1.69,0,0,1,1-.28,1.54,1.54,0,0,1,1.28.48,2.73,2.73,0,0,1,.38,1.64l0,4.79a2.61,2.61,0,0,1-.41,1.71,2.05,2.05,0,0,1-1.5.44A1.71,1.71,0,0,1,67.55,19a2.92,2.92,0,0,1-.71-1.37,4.47,4.47,0,0,0-1.53-2.52,4.86,4.86,0,0,0-2.91-.76,5.18,5.18,0,0,0-4.34,1.91,8.8,8.8,0,0,0-1.51,5.55,8.77,8.77,0,0,0,1.53,5.55,5.23,5.23,0,0,0,4.36,1.94A8.91,8.91,0,0,0,66.7,28a9.61,9.61,0,0,1,2.94-1.29,1.49,1.49,0,0,1,1.21.61,2.35,2.35,0,0,1,.48,1.51c0,1.08-1,2.1-2.85,3.05a14,14,0,0,1-6.43,1.44,10.2,10.2,0,0,1-7.8-3.18,11.7,11.7,0,0,1-3-8.33,11.7,11.7,0,0,1,3-8.23,10,10,0,0,1,7.66-3.28,11.23,11.23,0,0,1,2.58.3A15,15,0,0,1,67.23,11.51Z" transform="translate(-2.99 -1.33)"/>
    <path class="foreground" d="M82.09,15V28.71h8.38V25.43a2.79,2.79,0,0,1,.45-1.8,1.85,1.85,0,0,1,1.5-.54,2,2,0,0,1,1.53.54,2.72,2.72,0,0,1,.47,1.8v5.65A1.72,1.72,0,0,1,94,32.41a2.55,2.55,0,0,1-1.55.33H75.79a2.46,2.46,0,0,1-1.71-.48,2,2,0,0,1-.52-1.56,2,2,0,0,1,.51-1.53,2.53,2.53,0,0,1,1.72-.46h1.62V15H75.79a2.46,2.46,0,0,1-1.71-.48,2,2,0,0,1-.52-1.55,2,2,0,0,1,.55-1.55,2.49,2.49,0,0,1,1.72-.49h7.84a2.49,2.49,0,0,1,1.72.49,2,2,0,0,1,.55,1.55,2,2,0,0,1-.54,1.55,2.54,2.54,0,0,1-1.73.48Z" transform="translate(-2.99 -1.33)"/>
    <path class="foreground" d="M109.08,15V28.71h3.1a2.69,2.69,0,0,1,1.79.47,1.91,1.91,0,0,1,.54,1.52,2,2,0,0,1-.55,1.55,2.63,2.63,0,0,1-1.78.49H101.24a2.69,2.69,0,0,1-1.8-.48,2,2,0,0,1-.54-1.56,1.93,1.93,0,0,1,.53-1.53,2.77,2.77,0,0,1,1.81-.46h3.09V15h-3.09a2.69,2.69,0,0,1-1.8-.48,2,2,0,0,1-.54-1.55,2,2,0,0,1,.53-1.54,2.77,2.77,0,0,1,1.81-.46h10.94a2.75,2.75,0,0,1,1.82.46,2,2,0,0,1,.51,1.54,2,2,0,0,1-.53,1.55,2.69,2.69,0,0,1-1.8.48Z" transform="translate(-2.99 -1.33)"/>
    <path class="foreground" d="M133.22,32.74H125a1.29,1.29,0,0,1-1-.33,1.35,1.35,0,0,1-.32-1,1.11,1.11,0,0,1,.4-1,4.26,4.26,0,0,1,1.94-.27h.6V13.55H126a3.73,3.73,0,0,1-1.83-.28,1.19,1.19,0,0,1-.4-1,1.38,1.38,0,0,1,.33-1,1.26,1.26,0,0,1,1-.34h8.59a9.87,9.87,0,0,1,5.95,1.52,5.14,5.14,0,0,1,2.05,4.41,5,5,0,0,1-.63,2.54,4.86,4.86,0,0,1-1.86,1.79,6.21,6.21,0,0,1,3,2,5.36,5.36,0,0,1,1,3.28,5.76,5.76,0,0,1-.83,3.06A6.48,6.48,0,0,1,140,31.76a6.73,6.73,0,0,1-2,.75,16.59,16.59,0,0,1-3.13.23Zm-3.7-12.41h3.85a7.19,7.19,0,0,0,3.88-.83,2.85,2.85,0,0,0,1.26-2.56,3,3,0,0,0-1.14-2.51,5.27,5.27,0,0,0-3.28-.88h-4.57Zm0,9.81h4.09a9.9,9.9,0,0,0,4.88-.87,3.13,3.13,0,0,0,1.42-2.9,3.2,3.2,0,0,0-1.35-2.91,9.39,9.39,0,0,0-4.76-.87h-4.28Z" transform="translate(-2.99 -1.33)"/>
    <path class="foreground" d="M154.84,11.29h-3.13a5.23,5.23,0,0,1-2.24-.29,1.14,1.14,0,0,1-.45-1,1.25,1.25,0,0,1,.38-1,1.62,1.62,0,0,1,1.1-.33h6.07a1.29,1.29,0,0,1,.78.2.65.65,0,0,1,.27.55V30.14h5.78a1.44,1.44,0,0,1,1,.31,1.28,1.28,0,0,1,.32,1,1.4,1.4,0,0,1-.31,1,1.81,1.81,0,0,1-1.18.29H149.67a1.62,1.62,0,0,1-1.1-.33,1.26,1.26,0,0,1-.38-1,1.14,1.14,0,0,1,.39-.95,1.82,1.82,0,0,1,1.16-.32h5.1Z" transform="translate(-2.99 -1.33)"/>
    <path class="foreground" d="M188.37,24.25a8.39,8.39,0,0,1-2.69,6.45,11,11,0,0,1-13.93,0,8.39,8.39,0,0,1-2.69-6.45,8.34,8.34,0,0,1,2.69-6.43,11,11,0,0,1,13.93,0A8.42,8.42,0,0,1,188.37,24.25Zm-9.66,6.35a6.32,6.32,0,0,0,4.65-1.79,6.18,6.18,0,0,0,1.81-4.57,6.22,6.22,0,0,0-1.82-4.59,6.36,6.36,0,0,0-4.64-1.81,6.21,6.21,0,0,0-6.45,6.4,6.15,6.15,0,0,0,1.81,4.58A6.31,6.31,0,0,0,178.71,30.6Z" transform="translate(-2.99 -1.33)"/>
    <path class="foreground" d="M206.88,16.83v-.07a1.1,1.1,0,0,1,.35-.9,1.68,1.68,0,0,1,1.08-.28,1.16,1.16,0,0,1,1.05.44,3.81,3.81,0,0,1,.28,1.82v3.43a1.39,1.39,0,0,1-.35,1,1.43,1.43,0,0,1-1,.34,1.3,1.3,0,0,1-.86-.29,4.47,4.47,0,0,1-.87-1.18,6.31,6.31,0,0,0-2.14-2.26,5.52,5.52,0,0,0-2.91-.76,6.5,6.5,0,0,0-4.66,1.69,5.75,5.75,0,0,0-1.8,4.38,6.15,6.15,0,0,0,1.72,4.49,6,6,0,0,0,4.43,1.74,8.24,8.24,0,0,0,2.35-.34,7.9,7.9,0,0,0,2.11-1c.23-.15.54-.38.94-.69a3.43,3.43,0,0,1,1.88-1,1.26,1.26,0,0,1,.93.36,1.29,1.29,0,0,1,.35.93c0,1-.91,2-2.75,3a11.92,11.92,0,0,1-5.84,1.52,9.2,9.2,0,0,1-6.66-2.56,8.49,8.49,0,0,1-2.66-6.39,8.54,8.54,0,0,1,2.65-6.4,9.17,9.17,0,0,1,6.63-2.57,10.92,10.92,0,0,1,2.81.38A15.84,15.84,0,0,1,206.88,16.83Z" transform="translate(-2.99 -1.33)"/>
    <path class="foreground" d="M220.62,25.69v5.43a2.08,2.08,0,0,1-.31,1.18.92.92,0,0,1-.78.44h-3.41a1.55,1.55,0,0,1-1.08-.33,1.26,1.26,0,0,1-.37-1,1.08,1.08,0,0,1,.43-1,4.08,4.08,0,0,1,1.85-.27h.88V11.29h-.75a4.53,4.53,0,0,1-2-.29,1.12,1.12,0,0,1-.46-1A1.25,1.25,0,0,1,215,9a1.62,1.62,0,0,1,1.1-.33h3.52a1.26,1.26,0,0,1,.77.2.66.66,0,0,1,.28.55v13.2l5.32-4.45a2.49,2.49,0,0,1-.9-.57,1.07,1.07,0,0,1-.28-.74.94.94,0,0,1,.4-.83,2.15,2.15,0,0,1,1.18-.27h5a1.61,1.61,0,0,1,1.07.31,1.18,1.18,0,0,1,.37.94c0,.73-.6,1.16-1.79,1.29l-.55.07a4.66,4.66,0,0,0-1.66.58,9.64,9.64,0,0,0-1.82,1.3l-2.67,2.34,7,7.58h1.58a1.68,1.68,0,0,1,1.13.3,1.2,1.2,0,0,1,.34,1,1.28,1.28,0,0,1-.37,1,1.58,1.58,0,0,1-1.1.34h-5a2,2,0,0,1-1.18-.28,1,1,0,0,1-.37-.88,1.18,1.18,0,0,1,.36-.86,2.61,2.61,0,0,1,1.08-.58l-5.47-6Z" transform="translate(-2.99 -1.33)"/>
</svg>